<svg xmlns="http://www.w3.org/2000/svg" width="430" height="430" fill="none" viewBox="0 0 430 430"><g stroke-linecap="round"><path stroke="#121331" stroke-linejoin="round" stroke-miterlimit="10" stroke-width="12" d="M117.277 288.086c40.341 0 73.043-32.703 73.043-73.043S157.618 142 117.277 142c-40.34 0-73.043 32.702-73.043 73.043 0 40.34 32.703 73.043 73.043 73.043m195.336 0c40.341 0 73.043-32.703 73.043-73.043S352.954 142 312.613 142c-40.34 0-73.043 32.702-73.043 73.043 0 40.34 32.703 73.043 73.043 73.043"/><path stroke="#08a88a" stroke-width="18" d="M312.613 205.043v20m-195.336-20v20"/><path stroke="#121331" stroke-linejoin="round" stroke-miterlimit="10" stroke-width="12" d="M241.718 197.39C235.297 189.811 225.711 185 215 185c-10.758 0-20.382 4.854-26.803 12.49M44.224 215H25m379.999 0H385.65"/></g></svg>